<mxfile host="app.diagrams.net" agent="Mozilla/5.0 (Windows NT 10.0; Win64; x64) AppleWebKit/537.36 (KHTML, like Gecko) Chrome/131.0.0.0 Safari/537.36" version="25.0.3">
  <diagram name="Integration Hub" id="Gwofif0vAeowNGrBWTdj">
    <mxGraphModel dx="1050" dy="661" grid="1" gridSize="10" guides="1" tooltips="1" connect="1" arrows="1" fold="1" page="1" pageScale="1" pageWidth="1100" pageHeight="850" math="0" shadow="0">
      <root>
        <mxCell id="0" />
        <mxCell id="1" parent="0" />
        <mxCell id="hXpVFQbr3joO_DWSpM0u-7" style="edgeStyle=orthogonalEdgeStyle;rounded=0;orthogonalLoop=1;jettySize=auto;html=1;" edge="1" parent="1" source="hXpVFQbr3joO_DWSpM0u-1" target="hXpVFQbr3joO_DWSpM0u-6">
          <mxGeometry relative="1" as="geometry" />
        </mxCell>
        <mxCell id="hXpVFQbr3joO_DWSpM0u-1" value="Integration Hub" style="rounded=0;whiteSpace=wrap;html=1;" vertex="1" parent="1">
          <mxGeometry x="280" y="270" width="120" height="60" as="geometry" />
        </mxCell>
        <mxCell id="hXpVFQbr3joO_DWSpM0u-2" value="SAP" style="shape=process;whiteSpace=wrap;html=1;backgroundOutline=1;" vertex="1" parent="1">
          <mxGeometry x="790" y="270" width="120" height="60" as="geometry" />
        </mxCell>
        <mxCell id="hXpVFQbr3joO_DWSpM0u-4" style="edgeStyle=orthogonalEdgeStyle;rounded=0;orthogonalLoop=1;jettySize=auto;html=1;" edge="1" parent="1" source="hXpVFQbr3joO_DWSpM0u-3" target="hXpVFQbr3joO_DWSpM0u-1">
          <mxGeometry relative="1" as="geometry" />
        </mxCell>
        <mxCell id="hXpVFQbr3joO_DWSpM0u-3" value="DI Publish" style="shape=process;whiteSpace=wrap;html=1;backgroundOutline=1;" vertex="1" parent="1">
          <mxGeometry x="90" y="270" width="120" height="60" as="geometry" />
        </mxCell>
        <mxCell id="hXpVFQbr3joO_DWSpM0u-5" value="topic" style="text;html=1;align=center;verticalAlign=middle;whiteSpace=wrap;rounded=0;" vertex="1" parent="1">
          <mxGeometry x="210" y="330" width="60" height="30" as="geometry" />
        </mxCell>
        <mxCell id="hXpVFQbr3joO_DWSpM0u-14" style="edgeStyle=orthogonalEdgeStyle;rounded=0;orthogonalLoop=1;jettySize=auto;html=1;exitX=0.25;exitY=0;exitDx=0;exitDy=0;entryX=0.25;entryY=1;entryDx=0;entryDy=0;" edge="1" parent="1" source="hXpVFQbr3joO_DWSpM0u-6" target="hXpVFQbr3joO_DWSpM0u-13">
          <mxGeometry relative="1" as="geometry" />
        </mxCell>
        <mxCell id="hXpVFQbr3joO_DWSpM0u-16" style="edgeStyle=orthogonalEdgeStyle;rounded=0;orthogonalLoop=1;jettySize=auto;html=1;" edge="1" parent="1" source="hXpVFQbr3joO_DWSpM0u-6" target="hXpVFQbr3joO_DWSpM0u-2">
          <mxGeometry relative="1" as="geometry" />
        </mxCell>
        <mxCell id="hXpVFQbr3joO_DWSpM0u-6" value="DI Subscribe" style="shape=process;whiteSpace=wrap;html=1;backgroundOutline=1;" vertex="1" parent="1">
          <mxGeometry x="540" y="270" width="120" height="60" as="geometry" />
        </mxCell>
        <mxCell id="hXpVFQbr3joO_DWSpM0u-8" value="topic" style="text;html=1;align=center;verticalAlign=middle;whiteSpace=wrap;rounded=0;" vertex="1" parent="1">
          <mxGeometry x="430" y="320" width="60" height="30" as="geometry" />
        </mxCell>
        <mxCell id="hXpVFQbr3joO_DWSpM0u-11" style="edgeStyle=orthogonalEdgeStyle;rounded=0;orthogonalLoop=1;jettySize=auto;html=1;" edge="1" parent="1" source="hXpVFQbr3joO_DWSpM0u-10" target="hXpVFQbr3joO_DWSpM0u-3">
          <mxGeometry relative="1" as="geometry" />
        </mxCell>
        <mxCell id="hXpVFQbr3joO_DWSpM0u-10" value="MDM" style="rounded=1;whiteSpace=wrap;html=1;" vertex="1" parent="1">
          <mxGeometry x="90" y="100" width="120" height="60" as="geometry" />
        </mxCell>
        <mxCell id="hXpVFQbr3joO_DWSpM0u-12" value="MDM_ID" style="text;html=1;align=center;verticalAlign=middle;whiteSpace=wrap;rounded=0;" vertex="1" parent="1">
          <mxGeometry x="160" y="200" width="60" height="30" as="geometry" />
        </mxCell>
        <mxCell id="hXpVFQbr3joO_DWSpM0u-15" style="edgeStyle=orthogonalEdgeStyle;rounded=0;orthogonalLoop=1;jettySize=auto;html=1;exitX=0.75;exitY=1;exitDx=0;exitDy=0;entryX=0.75;entryY=0;entryDx=0;entryDy=0;" edge="1" parent="1" source="hXpVFQbr3joO_DWSpM0u-13" target="hXpVFQbr3joO_DWSpM0u-6">
          <mxGeometry relative="1" as="geometry" />
        </mxCell>
        <mxCell id="hXpVFQbr3joO_DWSpM0u-13" value="SAP BAPI" style="rounded=1;whiteSpace=wrap;html=1;" vertex="1" parent="1">
          <mxGeometry x="540" y="110" width="120" height="60" as="geometry" />
        </mxCell>
        <mxCell id="hXpVFQbr3joO_DWSpM0u-17" value="MDM_ID" style="text;html=1;align=center;verticalAlign=middle;whiteSpace=wrap;rounded=0;" vertex="1" parent="1">
          <mxGeometry x="830" y="340" width="60" height="30" as="geometry" />
        </mxCell>
        <mxCell id="hXpVFQbr3joO_DWSpM0u-18" value="Queue" style="text;html=1;align=center;verticalAlign=middle;whiteSpace=wrap;rounded=0;" vertex="1" parent="1">
          <mxGeometry x="310" y="230" width="60" height="30" as="geometry" />
        </mxCell>
      </root>
    </mxGraphModel>
  </diagram>
</mxfile>
